<?xml version="1.0" encoding="UTF-8" ?>
<!DOCTYPE svg PUBLIC "-//W3C//DTD SVG 1.1//EN" "http://www.w3.org/Graphics/SVG/1.1/DTD/svg11.dtd">
<svg width="1080pt" height="1080pt" viewBox="0 0 1080 1080" version="1.1" xmlns="http://www.w3.org/2000/svg">
<g id="#ffffffff">
</g>
<g id="#ffd83dff">
<path fill="#ffd83d" opacity="1.00" d=" M 532.58 51.32 C 535.60 49.37 539.14 47.03 542.87 48.65 C 671.68 123.00 800.50 197.37 929.33 271.72 C 941.72 279.01 954.38 285.87 966.60 293.44 C 962.69 296.80 957.98 298.96 953.61 301.61 C 903.98 329.99 854.57 358.77 805.13 387.47 C 800.01 389.67 795.39 392.80 790.53 395.48 C 778.25 402.71 765.73 409.54 753.57 416.97 C 689.87 453.97 626.00 490.68 562.18 527.47 C 562.03 606.66 562.19 685.86 562.10 765.05 C 562.10 767.90 562.23 770.76 562.40 773.62 C 555.86 777.38 549.37 781.26 542.81 785.00 C 540.85 786.25 538.38 785.83 536.54 784.60 C 530.26 780.87 523.93 777.25 517.60 773.61 C 518.51 755.10 517.80 736.56 518.03 718.04 C 518.03 658.36 518.02 598.69 518.04 539.02 C 517.94 535.22 518.46 531.32 517.51 527.60 C 509.11 522.18 500.15 517.60 491.59 512.43 C 436.32 480.43 380.87 448.71 325.70 416.58 C 314.07 409.21 301.89 402.74 290.05 395.71 C 284.60 392.83 279.62 389.02 273.76 386.97 C 270.82 384.97 267.83 383.04 264.71 381.35 C 214.07 352.27 163.75 322.66 112.98 293.81 C 114.30 292.91 115.63 292.02 116.99 291.20 C 255.53 211.26 394.07 131.31 532.58 51.32 M 318.33 360.42 C 318.35 360.86 318.41 361.75 318.43 362.19 C 335.27 372.21 352.59 381.45 369.22 391.80 L 370.15 391.32 C 370.26 391.66 370.48 392.34 370.59 392.68 C 426.47 424.61 482.10 457.03 537.93 489.07 C 539.43 489.93 541.30 489.65 542.75 488.80 C 596.84 457.55 650.98 426.37 705.06 395.10 C 706.94 394.11 708.94 393.19 710.31 391.50 L 710.82 391.76 C 727.52 381.54 744.74 372.14 761.61 362.19 C 761.62 361.72 761.64 360.77 761.64 360.30 C 687.76 317.75 613.98 275.02 540.03 232.57 C 466.08 275.10 392.22 317.79 318.33 360.42 Z" />
</g>
<g id="#fb7e14ff">
<path fill="#fb7e14" opacity="1.00" d=" M 112.79 293.70 L 112.98 293.81 C 163.75 322.66 214.07 352.27 264.71 381.35 C 267.83 383.04 270.82 384.97 273.76 386.97 C 273.56 489.13 273.82 591.30 273.63 693.47 C 288.85 702.87 304.55 711.49 319.97 720.57 C 393.21 763.10 466.68 805.23 540.04 847.57 C 540.45 881.03 540.11 914.51 540.22 947.97 C 540.22 976.29 540.28 1004.61 540.16 1032.93 C 524.06 1024.15 508.35 1014.65 492.39 1005.59 C 379.75 940.58 267.12 875.56 154.49 810.53 C 140.82 802.76 127.37 794.59 113.55 787.08 C 113.05 785.78 112.71 784.38 112.77 782.99 C 112.82 619.89 112.78 456.80 112.79 293.70 Z" />
<path fill="#fb7e14" opacity="1.00" d=" M 562.18 527.47 C 626.00 490.68 689.87 453.97 753.57 416.97 C 753.51 499.09 753.57 581.21 753.54 663.33 C 689.85 700.13 626.25 737.09 562.40 773.62 C 562.23 770.76 562.10 767.90 562.10 765.05 C 562.19 685.86 562.03 606.66 562.18 527.47 Z" />
</g>
<g id="#ffa119ff">
<path fill="#ffa119" opacity="1.00" d=" M 966.60 293.44 C 966.76 293.83 967.09 294.61 967.26 295.00 C 967.39 458.73 967.25 622.46 967.33 786.19 C 951.54 795.98 935.18 804.85 919.17 814.27 C 849.03 854.76 778.87 895.20 708.75 935.72 C 652.54 968.09 596.45 1000.70 540.16 1032.93 C 540.28 1004.61 540.22 976.29 540.22 947.97 C 540.11 914.51 540.45 881.03 540.04 847.57 C 628.90 796.51 717.58 745.13 806.37 693.96 C 806.57 591.64 806.48 489.31 806.42 386.99 L 805.13 387.47 C 854.57 358.77 903.98 329.99 953.61 301.61 C 957.98 298.96 962.69 296.80 966.60 293.44 Z" />
<path fill="#ffa119" opacity="1.00" d=" M 325.70 416.58 C 380.87 448.71 436.32 480.43 491.59 512.43 C 500.15 517.60 509.11 522.18 517.51 527.60 C 518.46 531.32 517.94 535.22 518.04 539.02 C 518.02 598.69 518.03 658.36 518.03 718.04 C 517.80 736.56 518.51 755.10 517.60 773.61 C 453.87 736.88 390.10 700.24 326.56 663.20 C 326.71 656.10 325.46 649.06 325.85 641.96 C 325.75 566.83 326.06 491.70 325.70 416.58 Z" />
</g>
<g id="#fab2a3ff">
<path fill="#fab2a3" opacity="1.00" d=" M 380.57 385.54 C 433.67 354.79 486.84 324.16 540.03 293.57 C 582.48 317.90 624.86 342.36 667.24 366.82 C 681.62 375.00 695.74 383.65 710.31 391.50 C 708.94 393.19 706.94 394.11 705.06 395.10 C 650.98 426.37 596.84 457.55 542.75 488.80 C 541.30 489.65 539.43 489.93 537.93 489.07 C 482.10 457.03 426.47 424.61 370.59 392.68 C 370.48 392.34 370.26 391.66 370.15 391.32 C 373.71 389.55 377.16 387.57 380.57 385.54 Z" />
</g>
</svg>
